<svg id="visual" viewBox="0 0 900 600" width="900" height="600" xmlns="http://www.w3.org/2000/svg" xmlns:xlink="http://www.w3.org/1999/xlink" version="1.1"><rect x="0" y="0" width="900" height="600" fill="#002233"></rect><path d="M715 600L729 591.7C743 583.3 771 566.7 784.2 550C797.3 533.3 795.7 516.7 795.3 500C795 483.3 796 466.7 791.7 450C787.3 433.3 777.7 416.7 763.5 400C749.3 383.3 730.7 366.7 735.2 350C739.7 333.3 767.3 316.7 773.8 300C780.3 283.3 765.7 266.7 753 250C740.3 233.3 729.7 216.7 737.8 200C746 183.3 773 166.7 775.7 150C778.3 133.3 756.7 116.7 754.8 100C753 83.3 771 66.7 783.5 50C796 33.3 803 16.7 806.5 8.3L810 0" fill="none" stroke-linecap="round" stroke-linejoin="miter" stroke="#0066FF" stroke-width="40"></path></svg>